<?xml version="1.0" encoding="UTF-8" standalone="no"?>
<svg width="16px" height="20px" viewBox="0 0 16 20" version="1.1" xmlns="http://www.w3.org/2000/svg" xmlns:xlink="http://www.w3.org/1999/xlink">
    <!-- Generator: Sketch 3.6.1 (26313) - http://www.bohemiancoding.com/sketch -->
    <title>Fill 939</title>
    <desc>Created with Sketch.</desc>
    <defs></defs>
    <g id="Configurable-Homepage-2" stroke="none" stroke-width="1" fill="none" fill-rule="evenodd">
        <g id="Homepage" transform="translate(-621.000000, -163.000000)" fill="#E600A3">
            <g id="Timetable" transform="translate(45.000000, 72.000000)">
                <path d="M591.074558,96.163846 C590.469958,96.0087883 589.855979,96.3726739 589.702172,96.9747732 L589.013165,99.6563976 C588.760571,99.5513585 588.496722,99.4575735 588.224121,99.3731671 L588.82497,92.919512 C588.883742,92.2986556 588.428572,91.7490758 587.806465,91.6921796 C587.187485,91.6346582 586.637905,92.0898278 586.580383,92.7106842 L586.002043,98.9311273 C585.710059,98.9017414 585.418075,98.8823591 585.129843,98.8748563 L584.615901,92.0435605 C584.569634,91.4220789 584.028182,90.9569056 583.407951,91.0031728 C582.786469,91.0494401 582.321296,91.5915171 582.368814,92.2123735 L582.881505,99.0505468 C582.535126,99.1205729 582.210005,99.2131074 581.912394,99.3243989 L580.664429,94.3844329 C580.512497,93.7810831 579.899769,93.4153218 579.295168,93.5678786 C578.693069,93.7204355 578.326682,94.3331638 578.479239,94.9365137 L580.219888,101.825331 L580.219888,101.829082 C580.417462,102.606872 580.354938,103.582236 580.211135,104.483822 L577.945916,102.093556 C577.517006,101.642138 576.80424,101.62213 576.352197,102.05104 C575.900153,102.47995 575.880771,103.192715 576.30843,103.644759 L579.564019,107.078539 C580.248023,108.391528 580.945158,109.560088 581.976793,110.319746 C581.869253,110.085284 581.799852,109.838317 581.799852,109.575719 L581.464102,106.270112 C581.464102,106.268862 581.465352,106.268862 581.465352,106.268862 L580.985173,104.399415 C580.901392,104.073044 581.097715,103.738544 581.424712,103.655388 C581.752334,103.571607 582.085583,103.76793 582.168739,104.096802 L582.542629,105.551094 C582.678929,105.494823 582.823358,105.444805 582.970913,105.398538 L582.645167,101.895982 C582.61328,101.558982 582.859622,101.260745 583.195372,101.230734 C583.532372,101.198847 583.831859,101.445189 583.862495,101.78219 L584.176362,105.157823 C584.335172,105.141567 584.49273,105.130938 584.649039,105.125936 L584.927267,101.420805 C584.952902,101.083805 585.246136,100.83121 585.583137,100.856845 C585.920137,100.881229 586.172731,101.175714 586.147097,101.512714 L585.867618,105.227224 C586.055813,105.265363 586.232754,105.31163 586.394064,105.372903 L587.071816,102.690653 C587.153722,102.362406 587.485721,102.164832 587.812718,102.247363 C588.14034,102.330519 588.339164,102.663143 588.256008,102.99014 L587.310655,106.732785 C587.205616,107.154192 587.238754,107.681888 587.316908,108.168945 L588.545491,106.872212 C588.778703,106.626495 589.164471,106.615866 589.410188,106.849078 C589.655279,107.08104 589.665283,107.468059 589.433322,107.713775 L587.668914,109.575719 C587.384433,110.119047 587.092449,110.611105 586.723562,111 C588.851855,110.441667 590.383676,108.899217 590.383676,107.078539 L591.000155,100.986268 L591.885485,97.5362325 C592.040543,96.9328826 591.676658,96.3189038 591.074558,96.163846" id="Fill-939"></path>
            </g>
        </g>
    </g>
</svg>