<?xml version="1.0" encoding="UTF-8" standalone="no"?>
<svg width="63px" height="63px" viewBox="0 0 63 63" version="1.1" xmlns="http://www.w3.org/2000/svg" xmlns:xlink="http://www.w3.org/1999/xlink" xmlns:sketch="http://www.bohemiancoding.com/sketch/ns">
    <!-- Generator: Sketch 3.3.3 (12072) - http://www.bohemiancoding.com/sketch -->
    <title>Logo</title>
    <desc>Created with Sketch.</desc>
    <defs></defs>
    <g id="SynOnline-Dashboard" stroke="none" stroke-width="1" fill="none" fill-rule="evenodd" sketch:type="MSPage">
        <g id="Application-Dashboard" sketch:type="MSArtboardGroup" transform="translate(-17.000000, -15.000000)">
            <g id="Group" sketch:type="MSLayerGroup" transform="translate(-16.000000, -16.000000)">
                <g id="Base-Copy-+-Nav-item-+-Logo" sketch:type="MSShapeGroup">
                    <g id="Logo" transform="translate(32.986656, 31.000000)">
                        <path d="M32.316907,32.3601866 C22.1332135,42.7455303 12.0576979,32.8910492 8.78063808,29.0344077 L31.7194658,6.07775771 L57.3381091,31.4017944 L56.1907145,32.5682327 C54.2647941,30.5055201 43.3890776,21.0752163 32.316907,32.3601866" id="Fill-1" fill="#88C4BF"></path>
                        <path d="M57.3381091,31.4017944 L56.1907145,32.5680355 C54.2647941,30.5055201 43.3890776,21.0752163 32.316907,32.3601866 C32.1590738,32.5230739 31.8780872,32.788308 31.7194658,32.9395604 L31.7194658,6.07775771 L57.3381091,31.4017944" id="Fill-2" fill="#37938F"></path>
                        <path d="M62.7558687,31.4017944 L31.7194658,0.342391304 L1.42631758,30.6599278 L2.16976937,31.4017944 L1.42631758,30.6599278 L0.684245103,31.4017944 L31.7194658,62.4619862 L62.7558687,31.4017944 L62.7558687,31.4017944 Z M59.7875788,31.4017944 L31.7194658,59.4933366 L3.652535,31.4017944 L31.7194658,3.31281573 L59.7875788,31.4017944 L59.7875788,31.4017944 Z" id="Fill-3" fill="#88C4BF"></path>
                        <path d="M32.316907,34.1127035 C43.3890776,22.8239864 52.9579899,31.8316905 54.8848955,33.8949947 L31.7194658,57.0774387 L6.39855784,31.4017944 L7.73846566,30.236342 C11.0153284,34.0904199 22.1332135,44.4927228 32.316907,34.1127035" id="Fill-4" fill="#37938F"></path>
                        <path d="M54.8860778,33.8949947 L31.7194658,57.0774387 L31.7888257,34.6504681 C31.9456737,34.5017792 32.1608472,34.2710552 32.3182863,34.1127035 C43.3890776,22.8239864 52.9579899,31.8316905 54.8860778,33.8949947" id="Fill-5" fill="#385F5E"></path>
                    </g>
                </g>
            </g>
        </g>
    </g>
</svg>